<svg id="Capa_1" enable-background="new 0 0 510 510" height="512" viewBox="0 0 510 510" width="512" xmlns="http://www.w3.org/2000/svg"><g><path d="m480 252.5v-16.429c0-44.112-35.888-80-80-80s-80 35.888-80 80v16.429h-30v105c0 60.654 49.346 110 110 110s110-49.346 110-110v-105zm-130-16.429c0-27.57 22.43-50 50-50s50 22.43 50 50v16.429h-100zm39.457 157.098-40.063-40.063 21.213-21.213 19.937 19.937 39.422-35.48 20.069 22.299z"/><g><path d="m90 162.5h35v30h-35z"/><path d="m260 282.5h-20v-30h20v-30h30 .837c6.708-54.274 53.103-96.429 109.163-96.429 6.829 0 13.512.631 20 1.828v-45.311c0-22.104-17.983-40.088-40.088-40.088h-339.824c-22.105 0-40.088 17.983-40.088 40.088v219.824c0 22.105 17.983 40.088 40.088 40.088h219.912zm-140 0h-60v-30h60zm7.346-60h-39.692c-15.249 0-27.654-12.405-27.654-27.654v-34.692c0-15.249 12.405-27.654 27.654-27.654h39.692c15.249 0 27.654 12.405 27.654 27.654v34.692c0 15.249-12.405 27.654-27.654 27.654zm82.654 60h-60v-30h60z"/></g></g></svg>